<svg id="Group_21227" data-name="Group 21227" xmlns="http://www.w3.org/2000/svg" width="38" height="38" viewBox="0 0 38 38">
  <path id="Path_54694" data-name="Path 54694" d="M25.069,23.937a1.188,1.188,0,0,1-2.375,0v-4.75a1.188,1.188,0,0,1,2.375,0Zm-1.187,5.938a1.188,1.188,0,1,1,1.188-1.187A1.188,1.188,0,0,1,23.881,29.875ZM26.256,13.85c-1.306-2.262-3.444-2.262-4.75,0L12.573,29.324c-1.306,2.262-.237,4.114,2.375,4.114H32.815c2.612,0,3.681-1.851,2.375-4.114Z" transform="translate(-4.881 -4.937)" fill="#fffffe" fill-rule="evenodd"/>
  <path id="Path_54695" data-name="Path 54695" d="M27.934,28.5H10.066c-2.612,0-3.681-1.851-2.375-4.114L16.625,8.913c1.306-2.262,3.444-2.262,4.75,0l8.934,15.474c1.306,2.262.238,4.114-2.375,4.114ZM19,0A19,19,0,1,0,38,19,19,19,0,0,0,19,0Z" fill="#d35252" fill-rule="evenodd"/>
  <path id="Path_54696" data-name="Path 54696" d="M31.169,22a1.188,1.188,0,0,0-1.187,1.188v4.75a1.188,1.188,0,0,0,2.375,0v-4.75A1.188,1.188,0,0,0,31.169,22m0,9.5a1.187,1.187,0,1,0,1.161,1.187A1.187,1.187,0,0,0,31.169,31.5" transform="translate(-12.169 -8.938)" fill="#d35252" fill-rule="evenodd"/>
</svg>
